<svg width="45" height="41" viewBox="0 0 45 41" fill="none" xmlns="http://www.w3.org/2000/svg">
<g opacity="0.5">
<path d="M18.1599 22H15.1599C14.6295 22 14.1208 21.7893 13.7457 21.4142C13.3706 21.0391 13.1599 20.5304 13.1599 20V13C13.1599 12.4696 13.3706 11.9609 13.7457 11.5858C14.1208 11.2107 14.6295 11 15.1599 11H18.1599M25.1599 9V5C25.1599 4.20435 24.8438 3.44129 24.2812 2.87868C23.7186 2.31607 22.9556 2 22.1599 2L18.1599 11V22H29.4399C29.9222 22.0055 30.3903 21.8364 30.7578 21.524C31.1253 21.2116 31.3676 20.7769 31.4399 20.3L32.8199 11.3C32.8634 11.0134 32.8441 10.7207 32.7633 10.4423C32.6824 10.1638 32.542 9.90629 32.3518 9.68751C32.1615 9.46873 31.926 9.29393 31.6615 9.17522C31.397 9.0565 31.1098 8.99672 30.8199 9H25.1599Z" stroke="black" stroke-width="1.5" stroke-linecap="round" stroke-linejoin="round"/>
<path d="M15.2833 38V31H16.1233V37.26H19.6333V38H15.2833ZM20.8957 38V33.04H21.6757V38H20.8957ZM20.8157 32.18V31.2H21.7557V32.18H20.8157ZM23.9804 31V34.9L25.8704 33.04H26.8004L25.0904 34.73L27.1404 38H26.2504L24.5504 35.28L23.9804 35.85V38H23.2004V31H23.9804ZM32.1545 35.65H28.0545C28.0812 36.1833 28.2478 36.6233 28.5545 36.97C28.8612 37.31 29.2645 37.48 29.7645 37.48C30.1845 37.48 30.5212 37.3833 30.7745 37.19C31.0345 36.99 31.2545 36.71 31.4345 36.35L32.0045 36.69C31.5178 37.6567 30.7612 38.14 29.7345 38.14C29.0478 38.14 28.4645 37.8933 27.9845 37.4C27.5112 36.9 27.2745 36.2733 27.2745 35.52C27.2745 34.7667 27.5145 34.1433 27.9945 33.65C28.4745 33.15 29.0645 32.9 29.7645 32.9C30.4978 32.9 31.0778 33.13 31.5045 33.59C31.9378 34.05 32.1545 34.6467 32.1545 35.38V35.65ZM29.7645 33.56C29.3312 33.56 28.9712 33.6933 28.6845 33.96C28.3978 34.22 28.2078 34.57 28.1145 35.01H31.3745C31.3478 34.5633 31.1745 34.21 30.8545 33.95C30.5345 33.69 30.1712 33.56 29.7645 33.56Z" fill="black"/>
</g>
</svg>
