<svg width="40" height="34" viewBox="0 0 40 34" fill="none" xmlns="http://www.w3.org/2000/svg">
<path d="M17.707 11.9673C18.0923 12.1247 18.2464 12.4395 18.4005 12.6756C20.9431 15.9815 24.3332 17.7918 28.4938 17.9492C31.8069 18.0279 34.5036 15.824 35.12 12.5182C35.7364 9.44853 33.9642 6.30014 31.1135 5.1982C28.1856 4.01755 24.9496 5.1982 23.2545 8.11046C23.1775 8.26788 23.0234 8.4253 22.8693 8.66143C22.3299 7.00853 21.7135 5.51304 20.789 4.17497C20.4808 3.70271 20.866 3.46658 21.0972 3.23045C25.566 -1.41344 33.4249 -0.941178 37.3544 4.17497C40.2052 7.95305 40.8216 12.1247 38.6642 16.375C36.5068 20.7041 32.8856 22.8292 28.1086 22.6718C22.5611 22.4357 17.8611 17.5557 17.707 11.9673Z" fill="#E03249"/>
<path d="M24.1784 16.2142C21.0194 14.9549 18.785 12.751 17.4752 9.5239C16.8588 7.94971 16.0113 6.61164 14.6244 5.74583C12.467 4.48647 10.3097 4.32905 8.15232 5.58841C5.99496 6.76906 4.83923 8.7368 4.76218 11.2555C4.68514 14.7188 4.76218 18.182 4.76218 21.6452C4.76218 22.7472 4.68514 22.8259 3.60646 22.511C1.68025 22.0388 0.139278 20.4646 0.139278 18.4968C0.0622293 15.5059 -0.168916 12.4362 0.216326 9.44519C0.986811 4.01421 5.84086 0 11.3884 0C16.6276 0 21.3276 4.17163 22.0981 9.5239C22.1751 10.0749 22.2522 10.7046 22.2522 11.3342C22.2522 13.1446 22.9456 14.7188 24.1784 16.2142Z" fill="#E03249"/>
<path d="M17.7821 15.9805C18.7837 18.1843 20.0935 19.916 21.9427 21.254C22.2509 21.4902 22.2509 21.805 22.2509 22.1986C22.2509 25.8979 22.2509 29.5973 22.2509 33.2179C22.2509 33.9263 22.0198 34.0838 21.4034 33.9263C19.246 33.4541 17.705 31.6437 17.628 29.5186C17.5509 25.1108 17.628 20.7031 17.628 16.2953C17.628 16.2166 17.705 16.2166 17.7821 15.9805Z" fill="#E03249"/>
</svg>
